<?xml version="1.0" encoding="UTF-8" standalone="no"?>
<!-- Created with Inkscape (http://www.inkscape.org/) -->

<svg
   width="210mm"
   height="297mm"
   version="1.1"
   viewBox="0 0 210 297"
   id="svg8"
   sodipodi:docname="logo_gespres.svg"
   inkscape:version="1.4.1-rc (06eac75fbf, 2025-03-29)"
   xmlns:inkscape="http://www.inkscape.org/namespaces/inkscape"
   xmlns:sodipodi="http://sodipodi.sourceforge.net/DTD/sodipodi-0.dtd"
   xmlns:xlink="http://www.w3.org/1999/xlink"
   xmlns="http://www.w3.org/2000/svg"
   xmlns:svg="http://www.w3.org/2000/svg">
  <defs
     id="defs8">
    <linearGradient
       id="linearGradient10"
       inkscape:collect="always">
      <stop
         style="stop-color:#00ff00;stop-opacity:1;"
         offset="0"
         id="stop10" />
      <stop
         style="stop-color:#ff0000;stop-opacity:1"
         offset="0.47678015"
         id="stop12" />
      <stop
         style="stop-color:#0066ff;stop-opacity:1"
         offset="1"
         id="stop11" />
    </linearGradient>
    <rect
       x="297.75429"
       y="465.50318"
       width="445.93248"
       height="181.72797"
       id="rect9" />
    <linearGradient
       inkscape:collect="always"
       xlink:href="#linearGradient10"
       id="linearGradient11"
       x1="77.671234"
       y1="77.671234"
       x2="197.13699"
       y2="77.671234"
       gradientUnits="userSpaceOnUse"
       gradientTransform="matrix(1,0,0,1.5994864,-1.1331551,29.590808)" />
  </defs>
  <sodipodi:namedview
     id="namedview8"
     pagecolor="#ffffff"
     bordercolor="#000000"
     borderopacity="0.25"
     inkscape:showpageshadow="2"
     inkscape:pageopacity="0.0"
     inkscape:pagecheckerboard="0"
     inkscape:deskcolor="#d1d1d1"
     inkscape:document-units="mm"
     inkscape:zoom="0.71535494"
     inkscape:cx="396.30676"
     inkscape:cy="561.25984"
     inkscape:window-width="1920"
     inkscape:window-height="1011"
     inkscape:window-x="0"
     inkscape:window-y="32"
     inkscape:window-maximized="1"
     inkscape:current-layer="g8" />
  <g
     id="g8">
    <path
       id="rect10"
       style="fill:url(#linearGradient11);fill-opacity:1;stroke-width:0.94865"
       d="m 92.692596,135.17685 c -3.429,0 -7.569564,4.99713 -7.569564,15.76327 0,10.88803 4.394237,14.66561 7.340637,14.66561 1.8034,0 3.048207,-1.09656 4.44521,-3.85919 l 0.78755,3.98152 h 0.99063 V 153.1743 h 2.260331 v -0.97533 h -6.959266 v 0.97533 h 2.310965 v 3.0872 c 0,7.43473 -2.184015,8.69455 -3.631815,8.69455 -1.8288,0 -4.57233,-2.23411 -4.57233,-14.01593 0,-9.83172 1.600171,-15.11361 4.521171,-15.11361 2.413,0 4.114904,3.494 4.978504,10.40058 h 1.04128 l -0.30437,-10.84775 h -0.91467 v 4.38821 c -1.270004,-3.1689 -3.149463,-4.5907 -4.724263,-4.5907 z m 30.505224,0 c -2.8448,0 -4.77491,3.29019 -4.77491,8.20605 0,4.2252 1.19373,6.33836 4.36873,7.84156 l 2.03192,1.015 c 0.762,0.36565 3.12436,0.85367 3.12436,6.25705 0,2.51887 -0.68589,6.62237 -3.47989,6.62237 -3.2258,0 -4.82596,-5.3224 -5.35936,-10.60391 h -1.01597 l 0.076,11.09076 h 0.94001 l -0.0253,-4.30636 c 1.016,2.92514 3.3274,4.46919 5.1816,4.46919 3.175,0 5.53713,-2.9252 5.53713,-8.53172 0,-6.90659 -2.92105,-7.96258 -4.49585,-8.65324 l -2.28617,-1.13816 c -1.905,-0.93442 -2.74298,-2.96574 -2.74298,-5.89088 0,-3.37204 1.16807,-5.68755 2.94607,-5.68755 2.8956,0 4.31806,5.64739 4.82606,9.54757 h 1.0418 l -0.25425,-9.62857 h -0.91415 v 4.14353 c -0.7112,-3.29078 -2.18458,-4.75269 -4.62298,-4.75269 z m 60.45213,0 c -2.8448,0 -4.77542,3.29019 -4.77542,8.20605 0,4.2252 1.19372,6.33836 4.36872,7.84156 l 2.03244,1.015 c 0.762,0.36565 3.12384,0.85367 3.12384,6.25705 0,2.51887 -0.68589,6.62237 -3.47989,6.62237 -3.2258,0 -4.82597,-5.3224 -5.35937,-10.60391 h -1.01596 l 0.0765,11.09076 h 0.93947 l -0.0253,-4.30636 c 1.016,2.92514 3.3274,4.46919 5.1816,4.46919 3.175,0 5.53713,-2.9252 5.53713,-8.53172 0,-6.90659 -2.92105,-7.96258 -4.49585,-8.65324 l -2.28565,-1.13816 c -1.905,-0.93442 -2.7435,-2.96574 -2.7435,-5.89088 0,-3.37204 1.16859,-5.68755 2.94659,-5.68755 2.8956,0 4.31806,5.64739 4.82606,9.54757 h 1.04128 l -0.25373,-9.62857 h -0.91468 v 4.14353 c -0.71119,-3.29078 -2.18457,-4.75269 -4.62297,-4.75269 z m -82.42299,0.60916 v 0.97534 h 2.31151 v 27.3822 h -2.31151 v 0.97533 h 13.33518 l 0.4315,-10.23857 h -1.0666 c -0.71121,6.86596 -1.72748,9.26324 -4.9279,9.26324 H 107.577 c -1.09221,0 -1.49863,-0.65039 -1.49863,-2.55985 v -10.80641 h 3.45459 v 5.60654 h 1.11726 V 144.8054 h -1.11726 v 5.15939 h -3.45459 v -10.64441 c 0,-2.27511 0.22865,-2.55903 1.32086,-2.55903 h 1.11726 c 2.94641,0 4.31848,0.56809 5.02968,8.77473 h 1.04129 l -0.27957,-9.75007 z m 30.60703,0 v 0.97534 h 2.31148 v 27.3822 h -2.31148 v 0.97533 h 7.36596 v -0.97533 h -2.48926 v -12.63476 h 2.33681 c 1.9812,0 2.97182,-0.36625 3.83542,-1.13817 1.5494,-1.38131 2.43862,-3.77774 2.43862,-6.86539 0,-3.08765 -0.94018,-7.71922 -5.89318,-7.71922 z m 14.2999,0 v 0.97534 h 2.28616 v 27.3822 h -2.28616 v 0.97533 h 7.18819 v -0.97533 h -2.31097 v -13.7316 h 1.16841 c 2.5908,0 2.71775,3.24967 3.02255,5.76854 l 0.25373,3.20953 c 0.2794,4.34708 1.09211,6.1347 2.87011,6.1347 1.8034,0 2.64198,-1.94987 2.71818,-6.2157 h -1.0418 c -0.0762,3.04702 -0.30471,4.34686 -0.86351,4.34686 -0.4318,0 -0.68568,-0.40629 -1.04128,-3.7377 l -0.27957,-3.49385 c -0.4826,-4.02207 -1.29543,-5.24104 -2.99723,-6.0942 3.0988,-0.85317 4.59765,-3.33119 4.59765,-7.55639 0,-4.42834 -2.10838,-6.98773 -5.79138,-6.98773 z m 15.54479,0 v 0.97534 h 2.31148 v 27.3822 h -2.31148 v 0.97533 h 13.3351 l 0.43202,-10.23857 h -1.06712 c -0.7112,6.86596 -1.72695,9.26324 -4.92735,9.26324 h -1.42265 c -1.0922,0 -1.49862,-0.65039 -1.49862,-2.55985 v -10.80641 h 3.45457 v 5.60654 h 1.11776 V 144.8054 h -1.11776 v 5.15939 h -3.45457 v -10.64441 c 0,-2.27511 0.22865,-2.55903 1.32085,-2.55903 h 1.11776 c 2.9464,0 4.31795,0.56809 5.02915,8.77473 h 1.04128 l -0.27905,-9.75007 z m -23.74894,0.97534 h 1.37201 c 2.1844,0 3.20032,2.03066 3.20032,6.90589 0,4.71273 -1.067,6.98771 -3.2768,6.98771 h -2.51458 v -11.33457 c 0,-2.47824 0.10145,-2.55903 1.21905,-2.55903 z m 14.50351,0 h 1.14308 c 2.0574,0 2.99723,1.78705 2.99723,6.05288 0,3.81894 -0.5844,6.74389 -3.2768,6.74389 h -2.28565 V 138.6302 c 0,-1.82821 0.10134,-1.86885 1.42214,-1.86885 z"
       inkscape:export-filename="../89e29cd/logo2.png"
       inkscape:export-xdpi="96"
       inkscape:export-ydpi="96" />
    <g
       stroke-width="0.60304"
       id="g3"
       transform="matrix(0.42464465,0,0,0.42464465,1.6200773,96.68674)">
      <path
         d="m 81.983,107.94 c -6.2745,7.3781 -10.063,16.547 -10.826,26.202 -0.97642,12.349 3.0642,24.571 11.209,33.905 l 30.532,-30.718 z"
         fill="#00ff00"
         id="path1" />
      <path
         d="m 151.84,107.6 -29.422,29.602 30.714,29.2 c 5.6888,-7.1691 9.1123,-15.871 9.8335,-24.994 0.97254,-12.305 -3.0355,-24.485 -11.125,-33.807 z"
         fill="#0066ff"
         id="path2" />
      <path
         d="m 114.55,91.794 c -10.316,0.56247 -20.143,4.5778 -27.902,11.4 l 30.94,29.414 29.534,-29.714 c -7.4158,-6.3921 -16.676,-10.254 -26.436,-11.026 -2.0414,-0.16139 -4.0913,-0.18642 -6.1361,-0.07493 z"
         fill="#ff0000"
         id="path3" />
    </g>
    <g
       stroke-width="0.956"
       id="g5"
       transform="matrix(0.42464465,0,0,0.42464465,1.6200773,96.68674)">
      <circle
         cx="117.06"
         cy="77.856003"
         r="12.021"
         fill="#ff0000"
         id="circle3" />
      <circle
         cx="57.144001"
         cy="134.82001"
         r="12.021"
         fill="#00ff00"
         id="circle4" />
      <circle
         cx="177.35001"
         cy="135.92"
         r="12.021"
         fill="#0066ff"
         id="circle5" />
    </g>
    <text
       transform="matrix(0.18071,0,0,0.12883,101.52738,33.330918)"
       x="207.25"
       fill="#ffffff"
       font-family="'AR PL UMing HK'"
       font-size="64px"
       stroke-width="2.835"
       style="white-space:pre;shape-inside:url(#rect6)"
       xml:space="preserve"
       id="text8"><tspan
         x="-391.23138"
         y="0"
         id="tspan3"><tspan
           style="font-family:'Berenis ADF Pro Math';text-align:center;text-anchor:middle"
           id="tspan1">GESTION DE LA </tspan><tspan
           style="font-family:'Berenis ADF Pro Math';text-align:center;text-anchor:middle"
           id="tspan2">PRESENCE</tspan></tspan></text>
  </g>
</svg>
